<svg xmlns="http://www.w3.org/2000/svg" viewBox="0 0 237.38 67.33"><defs><style>.cls-1,.cls-2{fill:#6c0;}.cls-1{fill-rule:evenodd;}</style></defs><title>Asset 1</title><g id="Layer_2" data-name="Layer 2"><g id="Layer_1-2" data-name="Layer 1"><path class="cls-1" d="M225.69,41h0a2.58,2.58,0,0,0,2.92,2.88h8.76v7.32H223.29a5.37,5.37,0,0,1-5.36-5.36V16.14h7.76V41ZM119.91,51.19h-7.76V16.14h20.08a11,11,0,0,1,11.09,10.94V51.19h-5.07a2.76,2.76,0,0,1-2.74-2.77V35.37h0V30.12c0-4.29-2.22-6.66-6.32-6.66h-9.28V51.19ZM100.46,16.14h7.76V51.19H88.15a11,11,0,0,1-11.06-11V16.14h5a2.73,2.73,0,0,1,2.74,2.74V31.93h0v5.29c0,4.29,2.22,6.66,6.32,6.66h9.28V16.14Zm113.55,0v4.73a2.6,2.6,0,0,1-2.59,2.59h-6.29v0H200c-4.44,0-5.44,2.26-5.44,6.47v.26H214v7H194.56v.26c0,4.25,1,6.47,5.44,6.47h11.42A2.57,2.57,0,0,1,214,46.46v4.73H197.74a11,11,0,0,1-11-11V27.08a11,11,0,0,1,11-10.94H214Zm-37.94,7.32h0V51.19h-5a2.79,2.79,0,0,1-2.77-2.77v-25h-9.39V18.4a2.27,2.27,0,0,1,2.29-2.26H185.5v5a2.3,2.3,0,0,1-2.29,2.29ZM147.2,16.14h5A2.76,2.76,0,0,1,155,18.88V51.19h-5.07a2.76,2.76,0,0,1-2.74-2.77V16.14Z"/><path class="cls-2" d="M58.24,0H.74A.74.74,0,0,0,0,.74V55C0,65.69,6,67.33,12.47,67.33H68.93a.74.74,0,0,0,.74-.74V12.85C69.66,5.37,64.41,0,58.24,0ZM37.91,57.65a24.18,24.18,0,1,1-6.33-48,25.19,25.19,0,0,1,3.65-.2c5.76.13,11,2.73,10.87,9.31a9,9,0,0,1-8,8.7c-1.15.13-1.91,0-3.14.23a9,9,0,0,0,1.4,17.75h.2a17.92,17.92,0,0,0,11.2-32.16,24.18,24.18,0,0,1-9.9,44.33Z"/></g></g></svg>